<svg id="f44ab234-fc10-4541-9a24-5d9703236ef3" data-name="Capa 1" xmlns="http://www.w3.org/2000/svg" viewBox="0 0 12 12"><defs><style>.aad1e897-3a53-41d0-9967-c6f1cdb111f1{fill:#efd035;}</style></defs><path class="aad1e897-3a53-41d0-9967-c6f1cdb111f1" d="M8.23405,2.35874,8.1646,2.34241a.36828.36828,0,0,0-.278.04554l-.83188.516-.51388-.83109a.36818.36818,0,0,0-.229-.16475l-.06952-.01633a.368.368,0,0,0-.39648.55268l.54276.87267-.87487.54252a.36969.36969,0,0,0,.11176.67391l.06539.01533a.368.368,0,0,0,.278-.04554l.83442-.51751.51554.83364a.36783.36783,0,0,0,.229.16475l.06718.01574a.36822.36822,0,0,0,.3971-.55247l-.54255-.8748.8748-.54255a.3682.3682,0,0,0-.11018-.67137Z"/><path class="aad1e897-3a53-41d0-9967-c6f1cdb111f1" d="M10.7751,3.49679a3.47865,3.47865,0,0,0-.12961-.64287A3.588,3.588,0,0,0,9.572,1.16811,4.24923,4.24923,0,0,0,7.66429.20759,4.22786,4.22786,0,0,0,5.53247.2211,3.6179,3.6179,0,0,0,3.82572,1.25517a4.02381,4.02381,0,0,0-.96321,1.864L2.3037,5.50276a1.22341,1.22341,0,0,0,1.83615,1.3211A1.25949,1.25949,0,0,0,4.24775,6.75a1.22769,1.22769,0,0,0,.82616.66168,1.21313,1.21313,0,0,0,.92421-.15214c.02522-.01564.051-.03334.07462-.05147a1.22231,1.22231,0,0,0,1.7184.45243.4781.4781,0,0,0,.05395-.03694,1.22258,1.22258,0,0,0,.80632.62676,1.142,1.142,0,0,0,.3534.02893,2.801,2.801,0,0,1-.07421.87763,2.94325,2.94325,0,0,1-.32391.82982,1.22061,1.22061,0,0,0-1.33233.07159.49211.49211,0,0,0-.0319-.05712,1.22465,1.22465,0,0,0-1.74-.36044A.87441.87441,0,0,0,5.458,9.56348a1.21286,1.21286,0,0,0-.76028-.547A1.22728,1.22728,0,0,0,3.66359,9.242a1.28293,1.28293,0,0,0-.06381-.11417,1.22345,1.22345,0,0,0-2.23152.3654l-.15676.6685a.383.383,0,0,0,.04162.30084.388.388,0,0,0,.2506.17308L6.25258,11.7489a3.00355,3.00355,0,0,0,.30635.05458,2.58831,2.58831,0,0,0,1.17275-.11762,2.54554,2.54554,0,0,0,.69138-.36409,1.5797,1.5797,0,0,0,.15958-.12864,2.7784,2.7784,0,0,0,.35975-.36637,2.3942,2.3942,0,0,0,.18128-.24867l.00049-.00207A3.69637,3.69637,0,0,0,9.6563,9.327l1.02557-4.37475A4.15982,4.15982,0,0,0,10.7751,3.49679ZM3.13778,9.99433l-.04789.20444L1.89606,9.91888,1.944,9.71445A.61169.61169,0,0,1,3.06074,9.532.60729.60729,0,0,1,3.13778,9.99433Zm1.85627.43513-.048.20444-1.19183-.27941.048-.20443a.61207.61207,0,1,1,1.19183.2794Zm1.78441.43775-.03831.16351a2.1286,2.1286,0,0,1-.30787-.04844L5.543,10.77384l.04362-.186a.612.612,0,0,1,.73637-.4549.60928.60928,0,0,1,.45546.73431Zm.73741.065a1.3055,1.3055,0,0,1-.1303.04059.6114.6114,0,0,1,.731-.44106.276.276,0,0,1,.04038.01158A1.9293,1.9293,0,0,1,7.51587,10.93225ZM4.11119,5.84239a.61314.61314,0,0,1-1.1939-.27989l.04361-.186,1.1939.27985Zm1.8562.43513a.61207.61207,0,0,1-1.19183-.27941l.036-.15331,1.19176.2794Zm1.793.40095a.612.612,0,0,1-1.19176-.27941l.03162-.13491,1.19177.2794Zm1.0501.89313A.61061.61061,0,0,1,8.34692,6.872a1.31408,1.31408,0,0,1,.09867.09433,1.90937,1.90937,0,0,1,.39558.61249ZM10.053,4.36919a2.166,2.166,0,0,1-.03528.23324l.00159.00251c-.01185.05977-.02419.12162-.03859.18291l-.32447,1.384L3.23721,4.667l.32447-1.38394c.0144-.06136.03031-.12013.04671-.181L3.60888,3.1a3.145,3.145,0,0,1,.35327-.80783l.00055-.002A2.86456,2.86456,0,0,1,4.345,1.791,2.95393,2.95393,0,0,1,5.74311.96926,3.522,3.522,0,0,1,7.48693.964a3.52784,3.52784,0,0,1,1.55978.77975,2.99251,2.99251,0,0,1,.89141,1.35844,2.94816,2.94816,0,0,1,.12465.618A3.09379,3.09379,0,0,1,10.053,4.36919Z"/></svg>